<svg xmlns="http://www.w3.org/2000/svg" width="130" height="17" viewBox="0 0 130 17">
  <g fill="none" fill-rule="evenodd">
    <path fill="#231F20" fill-rule="nonzero" d="M0,0 L0,16.7646154 L7.1920398,16.7646154 L4.13283582,8.91846154 L12.5925373,5.55769231 L15.9363184,14.0838462 L9.17761194,16.7646154 L16.5830846,16.7646154 L16.5830846,0 L0,0 Z M9.93432836,5.62961538 L9.6238806,4.83192308 C9.18465429,3.81871621 8.03215223,3.33723795 7.01354517,3.74140898 C5.99493812,4.14558001 5.47407663,5.2910288 5.83383085,6.33576923 L6.13781095,7.12038462 L4.50149254,7.77423077 L4.19751244,6.99615385 C3.43132039,5.02630284 4.38978741,2.80150244 6.33830846,2.02692308 C8.2868295,1.25234372 10.4875393,2.22130284 11.2537313,4.19115385 L11.5641791,4.98230769 L9.93432836,5.62961538 Z M8.4079602,10.9388462 C7.99476799,10.5221083 7.87075232,9.89469563 8.09379301,9.34943027 C8.31683369,8.80416492 8.84295815,8.44854618 9.42661692,8.44854618 C10.0102757,8.44854618 10.5364001,8.80416492 10.7594408,9.34943027 C10.9824815,9.89469563 10.8584658,10.5221083 10.4452736,10.9388462 L10.4452736,10.9388462 L12.8124378,13.9596154 L9.77263682,15.1692308 L9.38457711,11.3703846 C9.01723537,11.3602813 8.66770713,11.2081751 8.4079602,10.9453846 L8.4079602,10.9388462 Z"/>
    <path fill="#B32C20" fill-rule="nonzero" d="M69.5467662,14.3780769 L73.8024876,3.61576923 L75.9303483,3.61576923 L80.179602,14.3715385 L77.9159204,14.3715385 L77.2691542,12.7173077 L72.4442786,12.7173077 L71.7975124,14.3715385 L69.5273632,14.3715385 L69.5467662,14.3780769 Z M74.921393,6.46653846 L73.3044776,10.5530769 L76.4995025,10.5530769 L74.921393,6.46653846 Z M88.1800995,9.66384615 L90.8318408,14.3584615 L88.3741294,14.3584615 L85.8258706,9.91230769 L83.8855721,9.91230769 L83.8855721,14.3584615 L81.7577114,14.3584615 L81.7577114,3.61576923 L86.4338308,3.61576923 C88.9174129,3.61576923 90.159204,4.64884615 90.159204,6.715 C90.159204,8.27115385 89.5124378,9.26064103 88.2189055,9.68346154 L88.1800995,9.66384615 Z M83.9373134,7.91807692 L86.9189055,7.91807692 C87.2523703,7.96472913 87.5891587,7.85977005 87.8387618,7.63140649 C88.0883649,7.40304293 88.2251794,7.07469943 88.2124378,6.73461538 C88.1865672,6.02846154 87.7553897,5.66012821 86.9189055,5.62961538 L83.9179104,5.62961538 L83.9179104,7.91807692 L83.9373134,7.91807692 Z M94.1044776,14.3780769 L94.1044776,8.14038462 L97.2671642,11.6973077 L100.462189,8.10769231 L100.462189,14.3780769 L102.602985,14.3780769 L102.602985,3.61576923 L101.891542,3.61576923 L97.2736318,8.925 L92.6621891,3.61576923 L91.9507463,3.61576923 L91.9507463,14.3780769 L94.078607,14.3780769 L94.1044776,14.3780769 Z M105.746269,12.8284615 C104.737435,11.8154749 104.185419,10.427422 104.2199,8.99038462 C104.2199,6.01845541 106.603038,3.60923077 109.542786,3.60923077 C112.482535,3.60923077 114.865672,6.01845541 114.865672,8.99038462 C114.848324,11.1658537 113.547561,13.1205962 111.560866,13.9567353 C109.57417,14.7928745 107.28556,14.3487889 105.746269,12.8284615 L105.746269,12.8284615 Z M109.549254,12.3642308 C110.41957,12.3962921 111.260413,12.0429017 111.851741,11.3965385 C112.446812,10.7423834 112.76487,9.87868309 112.737811,8.99038462 C112.764179,8.10220113 112.446214,7.23875605 111.851741,6.58423077 C111.243799,5.9592583 110.413068,5.60726703 109.54602,5.60726703 C108.678972,5.60726703 107.848241,5.9592583 107.240299,6.58423077 C106.645826,7.23875605 106.327861,8.10220113 106.354229,8.99038462 C106.327169,9.87868309 106.645228,10.7423834 107.240299,11.3965385 C107.826394,12.0254781 108.649519,12.3725974 109.50398,12.3511538 L109.549254,12.3642308 Z M122.80796,9.67038462 L125.459701,14.365 L123.021393,14.365 L120.473134,9.91884615 L118.532836,9.91884615 L118.532836,14.365 L116.404975,14.365 L116.404975,3.61576923 L121.048756,3.61576923 C123.532338,3.61576923 124.774129,4.64884615 124.774129,6.715 C124.774129,8.27115385 124.127363,9.26064103 122.833831,9.68346154 L122.80796,9.67038462 Z M118.552239,7.91807692 L121.533831,7.91807692 C121.867296,7.96472913 122.204084,7.85977005 122.453687,7.63140649 C122.70329,7.40304293 122.840105,7.07469943 122.827363,6.73461538 C122.801493,6.02846154 122.370315,5.66012821 121.533831,5.62961538 L118.532836,5.62961538 L118.532836,7.91807692 L118.552239,7.91807692 Z"/>
    <path fill="#231F20" fill-rule="nonzero" d="M26.5238806,9.58538462 L22.2552239,9.58538462 L22.2552239,14.45 L20.761194,14.45 L20.761194,3.53076923 L28.0437811,3.53076923 L28.0437811,4.89730769 L22.2228856,4.89730769 L22.2228856,8.22538462 L26.4915423,8.22538462 L26.4915423,9.58538462 L26.5238806,9.58538462 Z M33.7870647,9.58538462 L31.0512438,9.58538462 L31.0512438,14.4369231 L29.5507463,14.4369231 L29.5507463,3.53076923 L34.1621891,3.53076923 C36.6328358,3.53076923 37.7840796,4.47230769 37.7840796,6.49923077 C37.7840796,8.02923077 37.20199,8.93807692 35.9537313,9.35 L35.4751244,9.50692308 L38.2497512,14.45 L36.5422886,14.45 L33.7870647,9.58538462 Z M31.4587065,8.22538462 L34.6925373,8.22538462 C35.1683028,8.28132028 35.6444236,8.12371298 35.9953226,7.79413169 C36.3462215,7.46455039 36.536663,6.99609022 36.5164179,6.51230769 C36.5164179,5.93692308 36.2383085,4.96269231 34.7054726,4.91038462 L31.0512438,4.91038462 L31.0512438,8.23192308 L31.4587065,8.23192308 L31.4587065,8.22538462 Z M41.7616915,12.6453846 L41.0696517,14.4434615 L39.4850746,14.4434615 L43.7472637,3.53076923 L45.5,3.53076923 L49.7880597,14.4434615 L48.2099502,14.4434615 L47.5179104,12.6453846 L41.7552239,12.6453846 L41.7616915,12.6453846 Z M42.3631841,11.1219231 L46.9810945,11.1219231 L44.6915423,5.12615385 L42.3631841,11.1219231 Z M59.1791045,10.5530769 L59.1791045,3.53076923 L57.678607,3.53076923 L57.678607,9.93192308 C57.7419214,10.7939459 57.4019854,11.6361479 56.760199,12.2073077 C55.4675096,13.1613492 53.7130874,13.1613492 52.420398,12.2073077 C51.7818464,11.6342678 51.4445559,10.7926934 51.5084577,9.93192308 L51.5084577,3.53076923 L50.0079602,3.53076923 L50.0079602,10.5530769 C50.0004603,11.6185634 50.4773241,12.6285292 51.3014925,13.2926923 C53.2399219,14.8302813 55.9665458,14.8302813 57.9049751,13.2926923 C58.7186869,12.6227077 59.1854627,11.6139321 59.1726368,10.5530769 L59.1791045,10.5530769 Z M69.5273632,8.98384615 C69.5273632,12.6584615 67.9039801,14.4434615 64.5666667,14.4434615 L60.5179104,14.4434615 L60.5179104,3.52423077 L64.5472637,3.52423077 C67.8910448,3.52423077 69.5144279,5.30923077 69.5144279,8.99038462 L69.5273632,8.98384615 Z M68.0333333,8.98384615 C68.0333333,6.41423077 66.8238806,5.06076923 64.560199,5.06076923 L62.0248756,5.06076923 L62.0248756,12.9069231 L64.5666667,12.9069231 C66.8174129,12.9265385 68.0139303,11.56 68.020398,8.99038462 L68.0333333,8.98384615 Z"/>
    <polygon fill="#231F20" fill-rule="nonzero" points="126.281 3.034 125.777 3.034 125.777 2.674 127.18 2.674 127.18 3.034 126.669 3.034 126.669 4.557 126.249 4.557 126.249 3.034"/>
    <path fill="#231F20" fill-rule="nonzero" d="M128.997512,3.85115385 C128.997512,3.62230769 128.997512,3.34769231 128.997512,3.07961538 L128.997512,3.07961538 C128.939303,3.32153846 128.861692,3.58961538 128.790547,3.81192308 L128.538308,4.505 L128.208458,4.505 L128.00796,3.77923077 C127.949751,3.55692308 127.885075,3.28884615 127.839801,3.04038462 L127.839801,3.04038462 C127.839801,3.29538462 127.839801,3.58307692 127.839801,3.81846154 L127.800995,4.53115385 L127.412935,4.53115385 L127.529353,2.64807692 L128.09204,2.64807692 L128.273134,3.30192308 C128.331343,3.51769231 128.389552,3.75307692 128.428358,3.95576923 L128.428358,3.95576923 C128.4801,3.74 128.538308,3.49153846 128.602985,3.30192308 L128.797015,2.64807692 L129.346766,2.64807692 L129.443781,4.53115385 L129.036318,4.53115385 L128.997512,3.85115385 Z"/>
  </g>
</svg>
