<?xml version="1.0" encoding="utf-8"?>
<!-- Generator: Adobe Illustrator 17.0.0, SVG Export Plug-In . SVG Version: 6.00 Build 0)  -->
<!DOCTYPE svg PUBLIC "-//W3C//DTD SVG 1.1//EN" "http://www.w3.org/Graphics/SVG/1.1/DTD/svg11.dtd">
<svg version="1.1" id="Layer_1" xmlns="http://www.w3.org/2000/svg" xmlns:xlink="http://www.w3.org/1999/xlink" x="0px" y="0px"
	 width="200px" height="44px" viewBox="-47 5.5 200 44" enable-background="new -47 5.5 200 44" xml:space="preserve">
<g>
	<g transform="translate(35 11)">
		<polygon fill="#00529A" points="56.148,13.11 56.148,22.801 61.999,22.801 61.999,21.127 58.213,21.127 58.213,13.11 		"/>
		<path fill="#00529A" d="M67.304,13.11l-4.013,9.691h2.135l0.864-2.172h3.617l0.902,2.172h2.178l-4.055-9.691H67.304z
			 M68.071,15.827h0.04l1.208,3.209h-2.462L68.071,15.827z"/>
		<polygon fill="#00529A" points="90.128,13.11 86.843,17.281 86.802,17.281 86.802,13.11 84.74,13.11 84.74,22.801 86.802,22.801 
			86.802,18.776 86.843,18.776 90.345,22.801 92.955,22.801 88.544,17.897 92.51,13.11 		"/>
		<polygon fill="#00529A" points="94.818,13.11 94.818,22.801 100.829,22.801 100.829,21.145 96.863,21.145 96.863,18.669 
			100.425,18.669 100.428,17.054 96.863,17.054 96.863,14.772 100.811,14.772 100.813,13.11 		"/>
		<g transform="translate(0 .015)">
			<path fill="#00529A" d="M76.901,14.758v2.827h1.045c0.952,0,1.566-0.527,1.566-1.413c0-0.756-0.472-1.414-1.566-1.414H76.901z
				 M80.465,22.786c0,0-0.973-1.554-1.331-2.104c-0.545-0.841-0.897-1.259-1.15-1.435h-1.083v3.539H74.84v-9.691h3.218
				c2.63,0,3.561,1.596,3.561,3.008c0,1.844-1.382,2.41-1.71,2.554v0.021c0.326,0.232,0.759,0.824,1.238,1.567
				c0.479,0.742,1.648,2.541,1.648,2.541H80.465z M50.468,22.967c-3.16,0-5.069-1.999-5.069-5.044c0-3.089,1.966-5.002,5.069-5.002
				c1.618,0,2.692,0.419,2.865,0.482v1.93c-0.114-0.068-1.275-0.756-2.581-0.756c-1.983,0-3.21,1.413-3.21,3.345
				c0,2.024,1.265,3.388,3.21,3.388c1.24,0,2.211-0.552,2.419-0.672l0.603,1.549C53.629,22.263,52.444,22.967,50.468,22.967"/>
			<g transform="translate(0 .548)">
				<defs>
					<filter id="Adobe_OpacityMaskFilter" filterUnits="userSpaceOnUse" x="-30.678" y="12.547" width="8.644" height="9.691">
						<feColorMatrix  type="matrix" values="1 0 0 0 0  0 1 0 0 0  0 0 1 0 0  0 0 0 1 0"/>
					</filter>
				</defs>
				<mask maskUnits="userSpaceOnUse" x="-30.678" y="12.547" width="8.644" height="9.691" id="logo-hc-b">
					<g filter="url(#Adobe_OpacityMaskFilter)">
						<polygon id="logo-hc-a" fill="#FFFFFF" points="-30.678,12.547 -30.678,22.238 -22.034,22.238 -22.034,12.547 						"/>
					</g>
				</mask>
				<polygon mask="url(#logo-hc-b)" fill="#00529A" points="-24.097,22.238 -24.097,18.192 -28.613,18.192 -28.613,22.238 
					-30.678,22.238 -30.678,12.547 -28.613,12.547 -28.613,16.44 -24.097,16.44 -24.097,12.547 -22.034,12.547 -22.034,22.238 				
					"/>
			</g>
			<polygon fill="#00529A" points="1.261,22.787 1.261,13.096 3.326,13.096 3.326,21.113 7.112,21.113 7.112,22.787 			"/>
			<path fill="#00529A" d="M-15.364,15.812h-0.039l-1.214,3.209h2.462L-15.364,15.812z M-12.664,22.786l-0.903-2.172h-3.617
				l-0.863,2.172h-2.135l4.014-9.691h1.627l4.055,9.691H-12.664z M13.218,15.812h-0.039l-1.214,3.209h2.462L13.218,15.812z
				 M15.918,22.786l-0.903-2.172h-3.617l-0.863,2.172H8.399l4.013-9.691h1.629l4.055,9.691H15.918z"/>
			<polygon fill="#00529A" points="27.177,22.787 22.033,15.973 21.993,15.973 21.993,22.787 19.948,22.787 19.948,13.096 
				22.196,13.096 27.034,19.503 27.074,19.503 27.074,13.096 29.141,13.096 29.141,22.787 			"/>
			<path fill="#00529A" d="M34.062,14.816v6.256h1.085c2.277,0,3.311-1.223,3.311-3.127c0-1.794-0.921-3.129-3.311-3.129H34.062z
				 M34.985,22.786h-2.984v-9.691h2.984c3.765,0,5.638,1.942,5.638,4.849C40.622,20.913,38.68,22.786,34.985,22.786L34.985,22.786z
				 M-6.572,14.758v2.827h1.045c0.951,0,1.565-0.527,1.565-1.413c0-0.756-0.472-1.414-1.565-1.414H-6.572z M-3.008,22.786
				c0,0-0.973-1.554-1.33-2.104c-0.546-0.841-0.898-1.26-1.151-1.435h-1.083v3.539h-2.062v-9.691h3.218
				c2.631,0,3.561,1.596,3.561,3.008c0,1.844-1.382,2.41-1.71,2.554v0.02c0.327,0.233,0.759,0.825,1.238,1.567
				c0.479,0.743,1.649,2.542,1.649,2.542H-3.008z M103.907,13.21h-0.172v0.459h0.166c0.172,0,0.275-0.075,0.275-0.233
				C104.176,13.292,104.08,13.21,103.907,13.21L103.907,13.21z M104.291,14.556l-0.435-0.635h-0.121v0.617h-0.365V12.92h0.562
				c0.377,0,0.607,0.176,0.607,0.491c0,0.227-0.115,0.371-0.313,0.447l0.441,0.635L104.291,14.556z M103.92,12.486
				c-0.691,0-1.24,0.465-1.24,1.296c0,0.824,0.549,1.29,1.24,1.29c0.697,0,1.246-0.466,1.246-1.29
				C105.166,12.952,104.61,12.486,103.92,12.486L103.92,12.486z M103.92,15.242c-0.856,0-1.451-0.585-1.451-1.46
				c0-0.868,0.607-1.466,1.451-1.466c0.856,0,1.451,0.592,1.451,1.466C105.371,14.651,104.764,15.242,103.92,15.242L103.92,15.242z"
				/>
		</g>
	</g>
	<path fill="#00539A" d="M-29.029,31.298c1.617-2.865,2.457-6.185,2.716-9.701c0,0,0.259,3.972,0.259,8.204
		c0,10.483-1.94,15.04-2.587,16.994c-0.776-0.977-7.242-8.074-7.242-8.074C-33.038,36.833-30.71,34.294-29.029,31.298z
		 M-17.583,31.298c-1.617-2.865-2.457-6.185-2.716-9.701c0,0-0.259,3.972-0.259,8.204c0,10.483,1.94,15.04,2.587,16.994
		c0.776-0.977,7.242-8.074,7.242-8.074C-13.574,36.833-15.902,34.294-17.583,31.298z"/>
	
		<linearGradient id="SVGID_1_" gradientUnits="userSpaceOnUse" x1="70.2079" y1="2.7484" x2="69.1604" y2="3.5449" gradientTransform="matrix(12.4456 0 0 -16.4787 -899.3427 71.7098)">
		<stop  offset="0.1202" style="stop-color:#056C29"/>
		<stop  offset="0.5507" style="stop-color:#579D31"/>
		<stop  offset="1" style="stop-color:#A8CE38"/>
	</linearGradient>
	<path fill="url(#SVGID_1_)" d="M-44.936,19.709l13.321-12.175c2.716,3.646,4.333,8.204,4.333,13.087
		c0,3.841-1.099,7.162-2.845,10.287C-32.973,25.113-38.405,21.011-44.936,19.709z"/>
	
		<linearGradient id="SVGID_2_" gradientUnits="userSpaceOnUse" x1="69.1216" y1="2.7483" x2="70.1691" y2="3.5448" gradientTransform="matrix(12.4456 0 0 -16.4787 -881.2441 71.7098)">
		<stop  offset="0.1202" style="stop-color:#056C29"/>
		<stop  offset="0.5507" style="stop-color:#579D31"/>
		<stop  offset="1" style="stop-color:#A8CE38"/>
	</linearGradient>
	<path fill="url(#SVGID_2_)" d="M-1.611,19.709L-14.932,7.534c-2.716,3.646-4.333,8.204-4.333,13.087
		c0,3.841,1.099,7.162,2.845,10.287C-13.574,25.113-8.142,21.011-1.611,19.709z"/>
</g>
</svg>
